<mxfile host="app.diagrams.net" modified="2021-02-13T16:03:00.373Z" agent="5.0 (Windows)" etag="uP38JY9aaoPUooU5oW8G" version="14.3.1" type="github">
  <diagram id="C5RBs43oDa-KdzZeNtuy" name="Page-1">
    <mxGraphModel dx="781" dy="1639" grid="1" gridSize="10" guides="1" tooltips="1" connect="1" arrows="1" fold="1" page="1" pageScale="1" pageWidth="827" pageHeight="1169" math="0" shadow="0">
      <root>
        <mxCell id="WIyWlLk6GJQsqaUBKTNV-0" />
        <mxCell id="WIyWlLk6GJQsqaUBKTNV-1" parent="WIyWlLk6GJQsqaUBKTNV-0" />
        <mxCell id="WIyWlLk6GJQsqaUBKTNV-2" value="" style="rounded=0;html=1;jettySize=auto;orthogonalLoop=1;fontSize=11;endArrow=block;endFill=0;endSize=8;strokeWidth=1;shadow=0;labelBackgroundColor=none;edgeStyle=orthogonalEdgeStyle;" parent="WIyWlLk6GJQsqaUBKTNV-1" source="ktyM1tuDacyK_bEYBzD8-0" edge="1">
          <mxGeometry relative="1" as="geometry">
            <mxPoint x="210" y="310" as="targetPoint" />
            <Array as="points">
              <mxPoint x="210" y="310" />
            </Array>
          </mxGeometry>
        </mxCell>
        <mxCell id="WIyWlLk6GJQsqaUBKTNV-3" value="Start " style="rounded=1;whiteSpace=wrap;html=1;fontSize=12;glass=0;strokeWidth=1;shadow=0;" parent="WIyWlLk6GJQsqaUBKTNV-1" vertex="1">
          <mxGeometry x="120" y="-90" width="200" height="60" as="geometry" />
        </mxCell>
        <mxCell id="abZUI4xL9Jtod4B_ornE-0" style="edgeStyle=orthogonalEdgeStyle;rounded=0;orthogonalLoop=1;jettySize=auto;html=1;exitX=0.25;exitY=1;exitDx=0;exitDy=0;" parent="WIyWlLk6GJQsqaUBKTNV-1" edge="1">
          <mxGeometry relative="1" as="geometry">
            <mxPoint x="190" y="520" as="targetPoint" />
            <mxPoint x="190" y="520" as="sourcePoint" />
          </mxGeometry>
        </mxCell>
        <mxCell id="abZUI4xL9Jtod4B_ornE-2" value="&lt;div&gt;&lt;br&gt;&lt;/div&gt;&lt;div&gt;Import .txt file&lt;/div&gt;&lt;div&gt;Name format:&lt;/div&gt;&lt;div&gt;LPNM_Fails&lt;/div&gt;&lt;div&gt;contains Format: &lt;br&gt;&lt;/div&gt;&lt;div&gt;&quot;USN: ______&quot;&lt;br&gt;&lt;/div&gt;&lt;div&gt;&lt;br&gt;&lt;br&gt;&lt;/div&gt;" style="shape=parallelogram;perimeter=parallelogramPerimeter;whiteSpace=wrap;html=1;fixedSize=1;" parent="WIyWlLk6GJQsqaUBKTNV-1" vertex="1">
          <mxGeometry x="130" width="180" height="100" as="geometry" />
        </mxCell>
        <mxCell id="abZUI4xL9Jtod4B_ornE-3" value="" style="rounded=0;html=1;jettySize=auto;orthogonalLoop=1;fontSize=11;endArrow=block;endFill=0;endSize=8;strokeWidth=1;shadow=0;labelBackgroundColor=none;edgeStyle=orthogonalEdgeStyle;" parent="WIyWlLk6GJQsqaUBKTNV-1" source="WIyWlLk6GJQsqaUBKTNV-3" target="abZUI4xL9Jtod4B_ornE-2" edge="1">
          <mxGeometry relative="1" as="geometry">
            <mxPoint x="220" y="120" as="sourcePoint" />
            <mxPoint x="220" y="300" as="targetPoint" />
          </mxGeometry>
        </mxCell>
        <mxCell id="abZUI4xL9Jtod4B_ornE-15" value="" style="edgeStyle=orthogonalEdgeStyle;rounded=0;orthogonalLoop=1;jettySize=auto;html=1;" parent="WIyWlLk6GJQsqaUBKTNV-1" source="abZUI4xL9Jtod4B_ornE-7" target="abZUI4xL9Jtod4B_ornE-14" edge="1">
          <mxGeometry relative="1" as="geometry">
            <Array as="points">
              <mxPoint x="200" y="530" />
              <mxPoint x="200" y="530" />
            </Array>
          </mxGeometry>
        </mxCell>
        <mxCell id="abZUI4xL9Jtod4B_ornE-7" value="&lt;div&gt;Print out WaferID&lt;/div&gt;&lt;div&gt;&quot;Is correct? Y/N&quot;&lt;br&gt;&lt;/div&gt;" style="shape=parallelogram;perimeter=parallelogramPerimeter;whiteSpace=wrap;html=1;fixedSize=1;" parent="WIyWlLk6GJQsqaUBKTNV-1" vertex="1">
          <mxGeometry x="149.75" y="440" width="120" height="80" as="geometry" />
        </mxCell>
        <mxCell id="abZUI4xL9Jtod4B_ornE-13" value="" style="edgeStyle=orthogonalEdgeStyle;rounded=0;orthogonalLoop=1;jettySize=auto;html=1;" parent="WIyWlLk6GJQsqaUBKTNV-1" source="abZUI4xL9Jtod4B_ornE-5" target="abZUI4xL9Jtod4B_ornE-7" edge="1">
          <mxGeometry relative="1" as="geometry" />
        </mxCell>
        <mxCell id="abZUI4xL9Jtod4B_ornE-5" value="&lt;div&gt;Read out&lt;/div&gt;&lt;div&gt;String&lt;br&gt;&lt;/div&gt;&lt;div&gt;&quot;WaferID_&quot;&lt;/div&gt;&lt;div&gt;of file(s)&lt;br&gt;&lt;/div&gt;" style="whiteSpace=wrap;html=1;aspect=fixed;" parent="WIyWlLk6GJQsqaUBKTNV-1" vertex="1">
          <mxGeometry x="161" y="310" width="97.5" height="97.5" as="geometry" />
        </mxCell>
        <mxCell id="abZUI4xL9Jtod4B_ornE-14" value="&lt;div&gt;Import messung.txt&lt;/div&gt;&lt;div&gt;contains format:&lt;/div&gt;&lt;div&gt;&quot;USNR=__&quot;&lt;br&gt;&lt;/div&gt;" style="shape=parallelogram;perimeter=parallelogramPerimeter;whiteSpace=wrap;html=1;fixedSize=1;direction=west;" parent="WIyWlLk6GJQsqaUBKTNV-1" vertex="1">
          <mxGeometry x="130" y="600" width="139.75" height="70" as="geometry" />
        </mxCell>
        <mxCell id="abZUI4xL9Jtod4B_ornE-16" value="Yes" style="text;html=1;strokeColor=none;fillColor=none;align=center;verticalAlign=middle;whiteSpace=wrap;rounded=0;" parent="WIyWlLk6GJQsqaUBKTNV-1" vertex="1">
          <mxGeometry x="161" y="550" width="40" height="20" as="geometry" />
        </mxCell>
        <mxCell id="abZUI4xL9Jtod4B_ornE-17" value="" style="endArrow=classic;html=1;entryX=1;entryY=0.5;entryDx=0;entryDy=0;exitX=1;exitY=0.5;exitDx=0;exitDy=0;" parent="WIyWlLk6GJQsqaUBKTNV-1" source="abZUI4xL9Jtod4B_ornE-7" target="abZUI4xL9Jtod4B_ornE-2" edge="1">
          <mxGeometry width="50" height="50" relative="1" as="geometry">
            <mxPoint x="400" y="540" as="sourcePoint" />
            <mxPoint x="400" y="200" as="targetPoint" />
            <Array as="points">
              <mxPoint x="600" y="480" />
              <mxPoint x="600" y="210" />
              <mxPoint x="600" y="100" />
              <mxPoint x="600" y="50" />
              <mxPoint x="520" y="50" />
              <mxPoint x="400" y="50" />
            </Array>
          </mxGeometry>
        </mxCell>
        <mxCell id="abZUI4xL9Jtod4B_ornE-18" value="No" style="text;html=1;align=center;verticalAlign=middle;resizable=0;points=[];autosize=1;" parent="WIyWlLk6GJQsqaUBKTNV-1" vertex="1">
          <mxGeometry x="285" y="450" width="30" height="20" as="geometry" />
        </mxCell>
        <mxCell id="abZUI4xL9Jtod4B_ornE-25" value="" style="edgeStyle=orthogonalEdgeStyle;rounded=0;orthogonalLoop=1;jettySize=auto;html=1;" parent="WIyWlLk6GJQsqaUBKTNV-1" source="abZUI4xL9Jtod4B_ornE-19" target="abZUI4xL9Jtod4B_ornE-24" edge="1">
          <mxGeometry relative="1" as="geometry" />
        </mxCell>
        <mxCell id="abZUI4xL9Jtod4B_ornE-19" value="&lt;div&gt;Check if&lt;/div&gt;&lt;div&gt;USN list from &lt;br&gt;&lt;/div&gt;&lt;div&gt;Import A&lt;/div&gt;&lt;div&gt;is within&lt;/div&gt;&lt;div&gt;Import B&lt;/div&gt;&lt;div&gt;USNR&lt;br&gt;&lt;/div&gt;&lt;div&gt;&lt;br&gt;&lt;/div&gt;" style="whiteSpace=wrap;html=1;aspect=fixed;" parent="WIyWlLk6GJQsqaUBKTNV-1" vertex="1">
          <mxGeometry x="139.87" y="740" width="120" height="120" as="geometry" />
        </mxCell>
        <mxCell id="abZUI4xL9Jtod4B_ornE-20" value="" style="endArrow=classic;html=1;entryX=0.5;entryY=0;entryDx=0;entryDy=0;exitX=0.5;exitY=0;exitDx=0;exitDy=0;" parent="WIyWlLk6GJQsqaUBKTNV-1" source="abZUI4xL9Jtod4B_ornE-14" target="abZUI4xL9Jtod4B_ornE-19" edge="1">
          <mxGeometry width="50" height="50" relative="1" as="geometry">
            <mxPoint x="240" y="620" as="sourcePoint" />
            <mxPoint x="290" y="570" as="targetPoint" />
          </mxGeometry>
        </mxCell>
        <mxCell id="abZUI4xL9Jtod4B_ornE-21" value="Import A" style="text;html=1;strokeColor=none;fillColor=none;align=center;verticalAlign=middle;whiteSpace=wrap;rounded=0;" parent="WIyWlLk6GJQsqaUBKTNV-1" vertex="1">
          <mxGeometry x="64.12" y="90" width="60" height="20" as="geometry" />
        </mxCell>
        <mxCell id="abZUI4xL9Jtod4B_ornE-23" value="Import B" style="text;html=1;strokeColor=none;fillColor=none;align=center;verticalAlign=middle;whiteSpace=wrap;rounded=0;" parent="WIyWlLk6GJQsqaUBKTNV-1" vertex="1">
          <mxGeometry x="70" y="630" width="60" height="20" as="geometry" />
        </mxCell>
        <mxCell id="abZUI4xL9Jtod4B_ornE-24" value="&lt;div&gt;Matching USNR&lt;/div&gt;&lt;div&gt;is/ are:&lt;/div&gt;&lt;div&gt;Output USNR number&lt;/div&gt;&lt;div&gt;+ row in file&lt;br&gt;&lt;/div&gt;" style="shape=parallelogram;perimeter=parallelogramPerimeter;whiteSpace=wrap;html=1;fixedSize=1;" parent="WIyWlLk6GJQsqaUBKTNV-1" vertex="1">
          <mxGeometry x="124.12" y="940" width="151.5" height="80" as="geometry" />
        </mxCell>
        <mxCell id="abZUI4xL9Jtod4B_ornE-26" value="True" style="text;html=1;strokeColor=none;fillColor=none;align=center;verticalAlign=middle;whiteSpace=wrap;rounded=0;" parent="WIyWlLk6GJQsqaUBKTNV-1" vertex="1">
          <mxGeometry x="149.75" y="890" width="40" height="20" as="geometry" />
        </mxCell>
        <mxCell id="abZUI4xL9Jtod4B_ornE-27" value="&lt;div&gt;No matches found. &lt;br&gt;&lt;/div&gt;&lt;div&gt;Import other Messung?&lt;/div&gt;&lt;div&gt;Y/N?&lt;br&gt;&lt;/div&gt;" style="shape=parallelogram;perimeter=parallelogramPerimeter;whiteSpace=wrap;html=1;fixedSize=1;" parent="WIyWlLk6GJQsqaUBKTNV-1" vertex="1">
          <mxGeometry x="430" y="740" width="170" height="90" as="geometry" />
        </mxCell>
        <mxCell id="abZUI4xL9Jtod4B_ornE-28" value="" style="endArrow=classic;html=1;exitX=1.026;exitY=0.367;exitDx=0;exitDy=0;exitPerimeter=0;" parent="WIyWlLk6GJQsqaUBKTNV-1" source="abZUI4xL9Jtod4B_ornE-19" target="abZUI4xL9Jtod4B_ornE-27" edge="1">
          <mxGeometry width="50" height="50" relative="1" as="geometry">
            <mxPoint x="240" y="860" as="sourcePoint" />
            <mxPoint x="290" y="810" as="targetPoint" />
          </mxGeometry>
        </mxCell>
        <mxCell id="abZUI4xL9Jtod4B_ornE-30" value="" style="endArrow=classic;html=1;exitX=0.5;exitY=0;exitDx=0;exitDy=0;entryX=0.048;entryY=0.4;entryDx=0;entryDy=0;entryPerimeter=0;" parent="WIyWlLk6GJQsqaUBKTNV-1" source="abZUI4xL9Jtod4B_ornE-27" target="abZUI4xL9Jtod4B_ornE-14" edge="1">
          <mxGeometry width="50" height="50" relative="1" as="geometry">
            <mxPoint x="240" y="700" as="sourcePoint" />
            <mxPoint x="290" y="650" as="targetPoint" />
            <Array as="points">
              <mxPoint x="515" y="642" />
            </Array>
          </mxGeometry>
        </mxCell>
        <mxCell id="abZUI4xL9Jtod4B_ornE-32" value="False" style="text;html=1;strokeColor=none;fillColor=none;align=center;verticalAlign=middle;whiteSpace=wrap;rounded=0;" parent="WIyWlLk6GJQsqaUBKTNV-1" vertex="1">
          <mxGeometry x="315" y="750" width="40" height="40" as="geometry" />
        </mxCell>
        <mxCell id="abZUI4xL9Jtod4B_ornE-33" value="Yes" style="text;html=1;strokeColor=none;fillColor=none;align=center;verticalAlign=middle;whiteSpace=wrap;rounded=0;" parent="WIyWlLk6GJQsqaUBKTNV-1" vertex="1">
          <mxGeometry x="390" y="620" width="40" height="20" as="geometry" />
        </mxCell>
        <mxCell id="abZUI4xL9Jtod4B_ornE-34" value="End" style="rounded=1;whiteSpace=wrap;html=1;" parent="WIyWlLk6GJQsqaUBKTNV-1" vertex="1">
          <mxGeometry x="138.5" y="1090" width="120" height="60" as="geometry" />
        </mxCell>
        <mxCell id="abZUI4xL9Jtod4B_ornE-35" value="" style="endArrow=classic;html=1;exitX=0.5;exitY=1;exitDx=0;exitDy=0;entryX=0.5;entryY=0;entryDx=0;entryDy=0;" parent="WIyWlLk6GJQsqaUBKTNV-1" source="abZUI4xL9Jtod4B_ornE-24" target="abZUI4xL9Jtod4B_ornE-34" edge="1">
          <mxGeometry width="50" height="50" relative="1" as="geometry">
            <mxPoint x="240" y="1040" as="sourcePoint" />
            <mxPoint x="290" y="990" as="targetPoint" />
          </mxGeometry>
        </mxCell>
        <mxCell id="abZUI4xL9Jtod4B_ornE-37" value="" style="endArrow=classic;html=1;exitX=0.5;exitY=1;exitDx=0;exitDy=0;entryX=1;entryY=0.5;entryDx=0;entryDy=0;" parent="WIyWlLk6GJQsqaUBKTNV-1" source="abZUI4xL9Jtod4B_ornE-27" target="abZUI4xL9Jtod4B_ornE-34" edge="1">
          <mxGeometry width="50" height="50" relative="1" as="geometry">
            <mxPoint x="240" y="980" as="sourcePoint" />
            <mxPoint x="515" y="1120" as="targetPoint" />
            <Array as="points">
              <mxPoint x="515" y="1120" />
            </Array>
          </mxGeometry>
        </mxCell>
        <mxCell id="abZUI4xL9Jtod4B_ornE-38" value="No" style="text;html=1;strokeColor=none;fillColor=none;align=center;verticalAlign=middle;whiteSpace=wrap;rounded=0;" parent="WIyWlLk6GJQsqaUBKTNV-1" vertex="1">
          <mxGeometry x="520" y="950" width="40" height="20" as="geometry" />
        </mxCell>
        <mxCell id="ktyM1tuDacyK_bEYBzD8-11" value="" style="edgeStyle=orthogonalEdgeStyle;rounded=0;orthogonalLoop=1;jettySize=auto;html=1;" edge="1" parent="WIyWlLk6GJQsqaUBKTNV-1" source="ktyM1tuDacyK_bEYBzD8-0" target="ktyM1tuDacyK_bEYBzD8-9">
          <mxGeometry relative="1" as="geometry" />
        </mxCell>
        <mxCell id="ktyM1tuDacyK_bEYBzD8-0" value="&lt;div&gt;Do you want to add another &lt;br&gt;&lt;/div&gt;&lt;div&gt;.txt file?&lt;br&gt;&lt;/div&gt;" style="shape=parallelogram;perimeter=parallelogramPerimeter;whiteSpace=wrap;html=1;fixedSize=1;" vertex="1" parent="WIyWlLk6GJQsqaUBKTNV-1">
          <mxGeometry x="130" y="130" width="160" height="100" as="geometry" />
        </mxCell>
        <mxCell id="ktyM1tuDacyK_bEYBzD8-1" value="" style="rounded=0;html=1;jettySize=auto;orthogonalLoop=1;fontSize=11;endArrow=block;endFill=0;endSize=8;strokeWidth=1;shadow=0;labelBackgroundColor=none;edgeStyle=orthogonalEdgeStyle;" edge="1" parent="WIyWlLk6GJQsqaUBKTNV-1" source="abZUI4xL9Jtod4B_ornE-2" target="ktyM1tuDacyK_bEYBzD8-0">
          <mxGeometry relative="1" as="geometry">
            <mxPoint x="210" y="310" as="targetPoint" />
            <Array as="points" />
            <mxPoint x="210" y="100" as="sourcePoint" />
          </mxGeometry>
        </mxCell>
        <mxCell id="ktyM1tuDacyK_bEYBzD8-2" value="No" style="text;html=1;strokeColor=none;fillColor=none;align=center;verticalAlign=middle;whiteSpace=wrap;rounded=0;" vertex="1" parent="WIyWlLk6GJQsqaUBKTNV-1">
          <mxGeometry x="160" y="260" width="40" height="20" as="geometry" />
        </mxCell>
        <mxCell id="ktyM1tuDacyK_bEYBzD8-3" value="&lt;div&gt;Merge .txt&lt;/div&gt;&lt;div&gt;files &lt;br&gt;&lt;/div&gt;" style="whiteSpace=wrap;html=1;aspect=fixed;" vertex="1" parent="WIyWlLk6GJQsqaUBKTNV-1">
          <mxGeometry x="460" y="140" width="80" height="80" as="geometry" />
        </mxCell>
        <mxCell id="ktyM1tuDacyK_bEYBzD8-5" value="Yes" style="text;html=1;strokeColor=none;fillColor=none;align=center;verticalAlign=middle;whiteSpace=wrap;rounded=0;" vertex="1" parent="WIyWlLk6GJQsqaUBKTNV-1">
          <mxGeometry x="275" y="200" width="40" height="20" as="geometry" />
        </mxCell>
        <mxCell id="ktyM1tuDacyK_bEYBzD8-8" value="" style="endArrow=classic;html=1;exitX=0.5;exitY=1;exitDx=0;exitDy=0;" edge="1" parent="WIyWlLk6GJQsqaUBKTNV-1" source="ktyM1tuDacyK_bEYBzD8-3">
          <mxGeometry width="50" height="50" relative="1" as="geometry">
            <mxPoint x="390" y="230" as="sourcePoint" />
            <mxPoint x="260" y="360" as="targetPoint" />
            <Array as="points">
              <mxPoint x="500" y="360" />
            </Array>
          </mxGeometry>
        </mxCell>
        <mxCell id="ktyM1tuDacyK_bEYBzD8-10" value="" style="edgeStyle=orthogonalEdgeStyle;rounded=0;orthogonalLoop=1;jettySize=auto;html=1;" edge="1" parent="WIyWlLk6GJQsqaUBKTNV-1" source="ktyM1tuDacyK_bEYBzD8-9" target="ktyM1tuDacyK_bEYBzD8-3">
          <mxGeometry relative="1" as="geometry" />
        </mxCell>
        <mxCell id="ktyM1tuDacyK_bEYBzD8-9" value="Input .txt file" style="shape=parallelogram;perimeter=parallelogramPerimeter;whiteSpace=wrap;html=1;fixedSize=1;" vertex="1" parent="WIyWlLk6GJQsqaUBKTNV-1">
          <mxGeometry x="315" y="150" width="120" height="60" as="geometry" />
        </mxCell>
      </root>
    </mxGraphModel>
  </diagram>
</mxfile>
